<svg xmlns="http://www.w3.org/2000/svg" xmlns:xlink="http://www.w3.org/1999/xlink" width="150" zoomAndPan="magnify" viewBox="0 0 112.5 112.499997" height="150" preserveAspectRatio="xMidYMid meet" version="1.0"><defs><clipPath id="183723c66d"><path d="M 0 4.558594 L 112.003906 4.558594 L 112.003906 107.601562 L 0 107.601562 Z M 0 4.558594 " clip-rule="nonzero"/></clipPath><clipPath id="599ac0080e"><path d="M 56 107.601562 C 46.855469 107.601562 39.191406 101.175781 37.46875 92.375 C 36.648438 92.214844 36.007812 91.515625 35.960938 90.640625 C 35.90625 89.609375 36.703125 88.734375 37.726562 88.683594 L 37.789062 88.683594 C 38.808594 88.683594 39.628906 89.457031 39.683594 90.457031 C 39.71875 91.203125 39.3125 91.863281 38.695312 92.195312 C 40.324219 100.390625 47.472656 106.363281 55.996094 106.363281 C 65.730469 106.363281 73.648438 98.433594 73.648438 88.683594 L 73.648438 70.144531 C 72.925781 69.886719 72.40625 69.203125 72.40625 68.390625 C 72.40625 67.359375 73.242188 66.523438 74.269531 66.523438 C 75.300781 66.523438 76.136719 67.359375 76.136719 68.390625 C 76.136719 69.203125 75.617188 69.886719 74.890625 70.144531 L 74.890625 88.679688 C 74.890625 99.113281 66.417969 107.597656 56 107.597656 Z M 57.855469 104.898438 C 56.890625 104.898438 56.070312 104.144531 56 103.164062 C 55.925781 102.136719 56.699219 101.242188 57.726562 101.167969 L 57.8125 101.164062 C 58.535156 101.164062 59.132812 101.539062 59.460938 102.089844 C 65.484375 100.53125 69.835938 95.0625 69.835938 88.683594 L 69.835938 62.949219 C 69.835938 62.605469 70.113281 62.328125 70.453125 62.328125 L 80.414062 62.328125 C 80.671875 61.601562 81.355469 61.078125 82.164062 61.078125 C 83.195312 61.078125 84.03125 61.917969 84.03125 62.949219 C 84.03125 63.980469 83.195312 64.816406 82.164062 64.816406 C 81.355469 64.816406 80.671875 64.296875 80.414062 63.570312 L 71.082031 63.570312 L 71.082031 88.679688 C 71.082031 95.660156 66.300781 101.636719 59.703125 103.308594 C 59.574219 104.148438 58.882812 104.824219 57.992188 104.886719 L 57.902344 104.890625 Z M 28.046875 86.746094 C 27.015625 86.746094 26.179688 85.910156 26.179688 84.878906 C 26.179688 83.847656 27.015625 83.007812 28.046875 83.007812 C 28.855469 83.007812 29.539062 83.53125 29.796875 84.257812 L 40.921875 84.257812 L 40.921875 64.515625 C 40.195312 64.257812 39.675781 63.574219 39.675781 62.765625 C 39.675781 61.730469 40.511719 60.894531 41.542969 60.894531 C 42.574219 60.894531 43.40625 61.730469 43.40625 62.765625 C 43.40625 63.574219 42.886719 64.257812 42.164062 64.515625 L 42.164062 84.878906 C 42.164062 85.21875 41.882812 85.5 41.542969 85.5 L 29.796875 85.5 C 29.539062 86.226562 28.855469 86.746094 28.046875 86.746094 Z M 30.546875 80.789062 C 29.515625 80.789062 28.679688 79.949219 28.679688 78.917969 C 28.679688 77.886719 29.515625 77.050781 30.546875 77.050781 C 31.355469 77.050781 32.039062 77.570312 32.296875 78.296875 L 37.113281 78.296875 L 37.113281 57.382812 C 36.386719 57.125 35.867188 56.441406 35.867188 55.632812 C 35.867188 54.597656 36.703125 53.761719 37.730469 53.761719 C 38.761719 53.761719 39.597656 54.597656 39.597656 55.632812 C 39.597656 56.441406 39.078125 57.125 38.351562 57.382812 L 38.351562 78.917969 C 38.351562 79.261719 38.074219 79.539062 37.730469 79.539062 L 32.296875 79.539062 C 32.039062 80.265625 31.355469 80.789062 30.546875 80.789062 Z M 57.46875 94.179688 C 55.265625 94.179688 53.476562 92.382812 53.476562 90.179688 L 53.476562 45.78125 L 54.097656 45.503906 L 60.839844 45.503906 C 61.183594 45.503906 61.460938 45.78125 61.460938 46.125 L 61.460938 81.242188 C 62.1875 81.5 62.707031 82.183594 62.707031 82.992188 C 62.707031 84.023438 61.871094 84.863281 60.839844 84.863281 C 59.8125 84.863281 58.976562 84.023438 58.976562 82.992188 C 58.976562 82.183594 59.496094 81.5 60.222656 81.242188 L 60.222656 46.746094 L 54.714844 46.746094 L 54.714844 90.179688 C 54.714844 91.699219 55.949219 92.9375 57.46875 92.9375 L 58.601562 92.683594 C 58.445312 92.304688 58.402344 91.875 58.527344 91.445312 C 58.765625 90.632812 59.511719 90.105469 60.316406 90.105469 L 60.664062 90.132812 C 61.824219 90.472656 62.390625 91.511719 62.101562 92.5 C 61.867188 93.316406 61.121094 93.84375 60.316406 93.84375 L 59.964844 93.816406 L 59.675781 93.730469 L 59.46875 93.636719 C 58.871094 93.984375 58.175781 94.179688 57.46875 94.179688 Z M 29.695312 65.617188 C 28.664062 65.617188 27.828125 64.78125 27.828125 63.75 C 27.828125 62.9375 28.351562 62.253906 29.074219 61.996094 L 29.074219 50.5625 L 18.890625 50.5625 C 11.921875 50.5625 5.949219 45.777344 4.285156 39.164062 C 3.441406 39.039062 2.769531 38.34375 2.707031 37.453125 C 2.632812 36.429688 3.40625 35.535156 4.429688 35.460938 L 4.476562 35.453125 L 4.566406 35.453125 C 5.535156 35.453125 6.355469 36.207031 6.421875 37.1875 C 6.476562 37.917969 6.089844 38.574219 5.503906 38.921875 C 7.058594 44.957031 12.519531 49.320312 18.890625 49.320312 L 29.695312 49.320312 C 30.039062 49.320312 30.316406 49.597656 30.316406 49.941406 L 30.316406 61.996094 C 31.042969 62.253906 31.5625 62.9375 31.5625 63.75 C 31.5625 64.78125 30.726562 65.617188 29.695312 65.617188 Z M 36.566406 40.929688 L 36.566406 35.417969 L 20.796875 35.417969 L 20.796875 40.929688 Z M 20.175781 42.171875 L 19.558594 41.890625 L 19.558594 34.453125 L 20.175781 34.175781 L 37.183594 34.175781 C 37.527344 34.175781 37.804688 34.453125 37.804688 34.796875 L 37.804688 41.550781 C 37.804688 41.890625 37.527344 42.171875 37.183594 42.171875 Z M 50.667969 42.171875 L 50.046875 41.890625 L 50.046875 34.796875 C 50.046875 34.453125 50.324219 34.175781 50.667969 34.175781 L 79.304688 34.175781 C 79.5625 33.449219 80.246094 32.925781 81.054688 32.925781 C 82.085938 32.925781 82.921875 33.765625 82.921875 34.796875 C 82.921875 35.828125 82.085938 36.664062 81.054688 36.664062 C 80.246094 36.664062 79.5625 36.144531 79.304688 35.417969 L 51.285156 35.417969 L 51.285156 40.929688 L 93.953125 40.929688 C 95.472656 40.929688 96.707031 39.691406 96.707031 38.171875 L 96.457031 37.035156 C 96.230469 37.128906 95.980469 37.179688 95.726562 37.179688 L 95.386719 37.160156 C 94.230469 36.824219 93.664062 35.785156 93.953125 34.796875 C 94.191406 33.980469 94.9375 33.453125 95.742188 33.453125 L 96.09375 33.480469 C 97.253906 33.824219 97.820312 34.859375 97.53125 35.847656 L 97.5 35.964844 L 97.40625 36.175781 C 97.753906 36.777344 97.953125 37.464844 97.953125 38.179688 C 97.953125 40.386719 96.160156 42.183594 93.957031 42.183594 Z M 49.914062 87.816406 C 48.882812 87.816406 48.050781 86.976562 48.050781 85.945312 C 48.050781 85.136719 48.570312 84.453125 49.292969 84.195312 L 49.292969 46.746094 L 45.351562 46.746094 C 45.011719 46.746094 44.734375 46.464844 44.734375 46.125 L 44.734375 30 C 44.734375 29.660156 45.011719 29.378906 45.351562 29.378906 L 85.929688 29.378906 C 86.183594 28.652344 86.867188 28.132812 87.679688 28.132812 C 88.707031 28.132812 89.542969 28.96875 89.542969 30 C 89.542969 31.03125 88.707031 31.871094 87.679688 31.871094 C 86.867188 31.871094 86.183594 31.347656 85.929688 30.621094 L 45.972656 30.621094 L 45.972656 45.503906 L 49.914062 45.503906 C 50.257812 45.503906 50.535156 45.78125 50.535156 46.125 L 50.535156 84.199219 C 51.261719 84.457031 51.78125 85.140625 51.78125 85.953125 C 51.78125 86.984375 50.945312 87.820312 49.914062 87.820312 Z M 18.890625 46.746094 C 12.675781 46.746094 7.621094 41.679688 7.621094 35.460938 C 7.621094 29.238281 12.675781 24.171875 18.890625 24.171875 L 28.414062 24.171875 C 28.671875 23.445312 29.355469 22.925781 30.164062 22.925781 C 31.195312 22.925781 32.027344 23.761719 32.027344 24.792969 C 32.027344 25.828125 31.195312 26.664062 30.164062 26.664062 C 29.355469 26.664062 28.671875 26.140625 28.414062 25.414062 L 18.890625 25.414062 C 13.359375 25.414062 8.863281 29.921875 8.863281 35.460938 C 8.863281 40.996094 13.359375 45.503906 18.890625 45.503906 L 40.921875 45.503906 L 40.921875 30.621094 L 19.410156 30.621094 C 16.933594 30.621094 14.917969 32.644531 14.917969 35.121094 L 14.917969 36.707031 C 15.640625 36.964844 16.160156 37.648438 16.160156 38.460938 C 16.160156 39.492188 15.324219 40.328125 14.296875 40.328125 C 13.265625 40.328125 12.429688 39.492188 12.429688 38.460938 C 12.429688 37.648438 12.949219 36.964844 13.675781 36.707031 L 13.675781 35.117188 C 13.675781 31.953125 16.246094 29.375 19.40625 29.375 L 41.542969 29.375 C 41.882812 29.375 42.164062 29.652344 42.164062 29.996094 L 42.164062 46.125 C 42.164062 46.464844 41.882812 46.746094 41.542969 46.746094 Z M 56 99.964844 C 49.789062 99.964844 44.734375 94.898438 44.734375 88.679688 L 44.734375 50.5625 L 35.21875 50.5625 C 34.960938 51.289062 34.277344 51.808594 33.46875 51.808594 C 32.4375 51.808594 31.601562 50.972656 31.601562 49.941406 C 31.601562 48.910156 32.4375 48.070312 33.46875 48.070312 C 34.277344 48.070312 34.960938 48.59375 35.21875 49.320312 L 45.351562 49.320312 C 45.695312 49.320312 45.972656 49.597656 45.972656 49.941406 L 45.972656 88.679688 C 45.972656 94.214844 50.472656 98.722656 56 98.722656 C 61.53125 98.722656 66.027344 94.214844 66.027344 88.679688 L 66.027344 46.125 C 66.027344 45.78125 66.308594 45.503906 66.648438 45.503906 L 93.113281 45.503906 C 98.640625 45.503906 103.140625 40.996094 103.140625 35.460938 C 103.140625 29.921875 98.640625 25.414062 93.113281 25.414062 L 45.351562 25.414062 C 45.011719 25.414062 44.734375 25.136719 44.734375 24.792969 L 44.734375 21.601562 L 22.503906 21.601562 C 22.246094 22.324219 21.566406 22.847656 20.753906 22.847656 C 19.726562 22.847656 18.890625 22.011719 18.890625 20.976562 C 18.890625 19.945312 19.726562 19.109375 20.753906 19.109375 C 21.566406 19.109375 22.246094 19.632812 22.503906 20.355469 L 45.351562 20.355469 C 45.695312 20.355469 45.972656 20.636719 45.972656 20.976562 L 45.972656 24.171875 L 93.105469 24.171875 C 99.320312 24.171875 104.375 29.238281 104.375 35.460938 C 104.375 41.679688 99.320312 46.746094 93.105469 46.746094 L 67.269531 46.746094 L 67.269531 88.679688 C 67.269531 94.898438 62.214844 99.964844 56 99.964844 Z M 25.675781 55.625 C 24.867188 55.625 24.183594 55.105469 23.925781 54.378906 L 18.890625 54.378906 C 8.472656 54.382812 0 45.894531 0 35.460938 C 0 25.027344 8.472656 16.539062 18.890625 16.539062 L 42.792969 16.539062 C 43.050781 15.816406 43.734375 15.292969 44.542969 15.292969 C 45.574219 15.292969 46.410156 16.128906 46.410156 17.160156 C 46.410156 18.195312 45.574219 19.03125 44.542969 19.03125 C 43.734375 19.03125 43.050781 18.507812 42.792969 17.785156 L 18.890625 17.785156 C 9.15625 17.785156 1.242188 25.710938 1.242188 35.460938 C 1.242188 45.207031 9.15625 53.140625 18.890625 53.140625 L 23.917969 53.140625 C 24.175781 52.414062 24.859375 51.894531 25.667969 51.894531 C 26.699219 51.894531 27.535156 52.730469 27.535156 53.761719 C 27.535156 54.792969 26.699219 55.632812 25.667969 55.632812 Z M 79.96875 55.625 C 78.9375 55.625 78.101562 54.789062 78.101562 53.757812 C 78.101562 52.726562 78.9375 51.886719 79.96875 51.886719 C 80.777344 51.886719 81.460938 52.410156 81.71875 53.136719 L 93.113281 53.136719 C 102.847656 53.136719 110.765625 45.203125 110.765625 35.453125 C 110.765625 25.707031 102.847656 17.773438 93.113281 17.773438 L 56.851562 17.773438 C 56.511719 17.773438 56.230469 17.492188 56.230469 17.152344 L 56.230469 10.917969 C 55.507812 10.660156 54.988281 9.976562 54.988281 9.167969 C 54.988281 8.132812 55.824219 7.296875 56.851562 7.296875 C 57.882812 7.296875 58.71875 8.132812 58.71875 9.167969 C 58.71875 9.976562 58.199219 10.660156 57.472656 10.917969 L 57.472656 16.539062 L 93.113281 16.539062 C 103.53125 16.539062 112.003906 25.027344 112.003906 35.460938 C 112.003906 45.894531 103.53125 54.378906 93.113281 54.378906 L 81.71875 54.378906 C 81.460938 55.105469 80.777344 55.625 79.96875 55.625 Z M 74.277344 59.019531 C 73.246094 59.019531 72.410156 58.183594 72.410156 57.152344 C 72.410156 56.339844 72.929688 55.65625 73.65625 55.398438 L 73.65625 49.941406 C 73.65625 49.597656 73.933594 49.320312 74.277344 49.320312 L 93.113281 49.320312 C 100.746094 49.320312 106.953125 43.101562 106.953125 35.460938 C 106.953125 27.816406 100.746094 21.601562 93.113281 21.601562 L 51.339844 21.601562 C 50.996094 21.601562 50.71875 21.320312 50.71875 20.976562 L 50.71875 8.183594 C 49.992188 7.925781 49.472656 7.238281 49.472656 6.429688 C 49.480469 5.398438 50.308594 4.558594 51.339844 4.558594 C 52.371094 4.558594 53.203125 5.398438 53.203125 6.429688 C 53.203125 7.238281 52.683594 7.925781 51.960938 8.183594 L 51.960938 20.355469 L 93.105469 20.355469 C 101.421875 20.355469 108.1875 27.132812 108.1875 35.460938 C 108.1875 43.789062 101.421875 50.5625 93.105469 50.5625 L 74.890625 50.5625 L 74.890625 55.40625 C 75.617188 55.664062 76.136719 56.347656 76.136719 57.15625 C 76.136719 58.1875 75.300781 59.027344 74.269531 59.027344 Z M 74.277344 59.019531 " clip-rule="nonzero"/></clipPath><linearGradient x1="0.039" gradientTransform="matrix(0, 104.269009, -104.108399, 0, 56.114426, 0.493687)" y1="0" x2="1.027232" gradientUnits="userSpaceOnUse" y2="0" id="efc43d2614"><stop stop-opacity="1" stop-color="rgb(0.382996%, 95.16449%, 96.020508%)" offset="0"/><stop stop-opacity="1" stop-color="rgb(0.38147%, 94.952393%, 96.012878%)" offset="0.00390625"/><stop stop-opacity="1" stop-color="rgb(0.379944%, 94.741821%, 96.005249%)" offset="0.0078125"/><stop stop-opacity="1" stop-color="rgb(0.378418%, 94.529724%, 95.99762%)" offset="0.0117187"/><stop stop-opacity="1" stop-color="rgb(0.376892%, 94.319153%, 95.98999%)" offset="0.015625"/><stop stop-opacity="1" stop-color="rgb(0.375366%, 94.107056%, 95.980835%)" offset="0.0195312"/><stop stop-opacity="1" stop-color="rgb(0.37384%, 93.896484%, 95.973206%)" offset="0.0234375"/><stop stop-opacity="1" stop-color="rgb(0.372314%, 93.684387%, 95.965576%)" offset="0.0273437"/><stop stop-opacity="1" stop-color="rgb(0.370789%, 93.473816%, 95.957947%)" offset="0.03125"/><stop stop-opacity="1" stop-color="rgb(0.369263%, 93.261719%, 95.950317%)" offset="0.0351562"/><stop stop-opacity="1" stop-color="rgb(0.367737%, 93.051147%, 95.942688%)" offset="0.0390625"/><stop stop-opacity="1" stop-color="rgb(0.366211%, 92.83905%, 95.935059%)" offset="0.0429688"/><stop stop-opacity="1" stop-color="rgb(0.364685%, 92.628479%, 95.927429%)" offset="0.046875"/><stop stop-opacity="1" stop-color="rgb(0.363159%, 92.416382%, 95.918274%)" offset="0.0507812"/><stop stop-opacity="1" stop-color="rgb(0.361633%, 92.205811%, 95.910645%)" offset="0.0546875"/><stop stop-opacity="1" stop-color="rgb(0.360107%, 91.993713%, 95.903015%)" offset="0.0585938"/><stop stop-opacity="1" stop-color="rgb(0.358582%, 91.783142%, 95.895386%)" offset="0.0625"/><stop stop-opacity="1" stop-color="rgb(0.357056%, 91.571045%, 95.887756%)" offset="0.0664063"/><stop stop-opacity="1" stop-color="rgb(0.35553%, 91.360474%, 95.880127%)" offset="0.0703125"/><stop stop-opacity="1" stop-color="rgb(0.354004%, 91.148376%, 95.872498%)" offset="0.0742188"/><stop stop-opacity="1" stop-color="rgb(0.352478%, 90.937805%, 95.864868%)" offset="0.078125"/><stop stop-opacity="1" stop-color="rgb(0.350952%, 90.725708%, 95.857239%)" offset="0.0820313"/><stop stop-opacity="1" stop-color="rgb(0.349426%, 90.515137%, 95.849609%)" offset="0.0859375"/><stop stop-opacity="1" stop-color="rgb(0.3479%, 90.30304%, 95.840454%)" offset="0.0898438"/><stop stop-opacity="1" stop-color="rgb(0.346375%, 90.092468%, 95.832825%)" offset="0.09375"/><stop stop-opacity="1" stop-color="rgb(0.344849%, 89.880371%, 95.825195%)" offset="0.0976563"/><stop stop-opacity="1" stop-color="rgb(0.343323%, 89.6698%, 95.817566%)" offset="0.101563"/><stop stop-opacity="1" stop-color="rgb(0.341797%, 89.457703%, 95.809937%)" offset="0.105469"/><stop stop-opacity="1" stop-color="rgb(0.340271%, 89.247131%, 95.802307%)" offset="0.109375"/><stop stop-opacity="1" stop-color="rgb(0.338745%, 89.035034%, 95.794678%)" offset="0.113281"/><stop stop-opacity="1" stop-color="rgb(0.337219%, 88.824463%, 95.787048%)" offset="0.117188"/><stop stop-opacity="1" stop-color="rgb(0.335693%, 88.612366%, 95.777893%)" offset="0.121094"/><stop stop-opacity="1" stop-color="rgb(0.334167%, 88.401794%, 95.770264%)" offset="0.125"/><stop stop-opacity="1" stop-color="rgb(0.332642%, 88.189697%, 95.762634%)" offset="0.128906"/><stop stop-opacity="1" stop-color="rgb(0.331116%, 87.979126%, 95.755005%)" offset="0.132812"/><stop stop-opacity="1" stop-color="rgb(0.32959%, 87.767029%, 95.747375%)" offset="0.136719"/><stop stop-opacity="1" stop-color="rgb(0.328064%, 87.556458%, 95.739746%)" offset="0.140625"/><stop stop-opacity="1" stop-color="rgb(0.325012%, 87.34436%, 95.732117%)" offset="0.144531"/><stop stop-opacity="1" stop-color="rgb(0.323486%, 87.133789%, 95.724487%)" offset="0.148438"/><stop stop-opacity="1" stop-color="rgb(0.32196%, 86.921692%, 95.716858%)" offset="0.152344"/><stop stop-opacity="1" stop-color="rgb(0.320435%, 86.711121%, 95.709229%)" offset="0.15625"/><stop stop-opacity="1" stop-color="rgb(0.318909%, 86.499023%, 95.700073%)" offset="0.160156"/><stop stop-opacity="1" stop-color="rgb(0.317383%, 86.288452%, 95.692444%)" offset="0.164062"/><stop stop-opacity="1" stop-color="rgb(0.315857%, 86.076355%, 95.684814%)" offset="0.167969"/><stop stop-opacity="1" stop-color="rgb(0.314331%, 85.865784%, 95.677185%)" offset="0.171875"/><stop stop-opacity="1" stop-color="rgb(0.312805%, 85.653687%, 95.669556%)" offset="0.175781"/><stop stop-opacity="1" stop-color="rgb(0.311279%, 85.443115%, 95.661926%)" offset="0.179688"/><stop stop-opacity="1" stop-color="rgb(0.309753%, 85.231018%, 95.654297%)" offset="0.183594"/><stop stop-opacity="1" stop-color="rgb(0.308228%, 85.020447%, 95.646667%)" offset="0.1875"/><stop stop-opacity="1" stop-color="rgb(0.306702%, 84.80835%, 95.637512%)" offset="0.191406"/><stop stop-opacity="1" stop-color="rgb(0.305176%, 84.597778%, 95.629883%)" offset="0.195312"/><stop stop-opacity="1" stop-color="rgb(0.30365%, 84.385681%, 95.622253%)" offset="0.199219"/><stop stop-opacity="1" stop-color="rgb(0.302124%, 84.17511%, 95.614624%)" offset="0.203125"/><stop stop-opacity="1" stop-color="rgb(0.300598%, 83.963013%, 95.606995%)" offset="0.207031"/><stop stop-opacity="1" stop-color="rgb(0.299072%, 83.752441%, 95.599365%)" offset="0.210938"/><stop stop-opacity="1" stop-color="rgb(0.297546%, 83.540344%, 95.591736%)" offset="0.214844"/><stop stop-opacity="1" stop-color="rgb(0.296021%, 83.328247%, 95.584106%)" offset="0.21875"/><stop stop-opacity="1" stop-color="rgb(0.294495%, 83.11615%, 95.576477%)" offset="0.222656"/><stop stop-opacity="1" stop-color="rgb(0.292969%, 82.905579%, 95.568848%)" offset="0.226562"/><stop stop-opacity="1" stop-color="rgb(0.291443%, 82.693481%, 95.559692%)" offset="0.230469"/><stop stop-opacity="1" stop-color="rgb(0.289917%, 82.48291%, 95.552063%)" offset="0.234375"/><stop stop-opacity="1" stop-color="rgb(0.288391%, 82.270813%, 95.544434%)" offset="0.238281"/><stop stop-opacity="1" stop-color="rgb(0.286865%, 82.060242%, 95.536804%)" offset="0.242188"/><stop stop-opacity="1" stop-color="rgb(0.285339%, 81.848145%, 95.529175%)" offset="0.246094"/><stop stop-opacity="1" stop-color="rgb(0.283813%, 81.637573%, 95.521545%)" offset="0.25"/><stop stop-opacity="1" stop-color="rgb(0.282288%, 81.425476%, 95.513916%)" offset="0.253906"/><stop stop-opacity="1" stop-color="rgb(0.280762%, 81.214905%, 95.506287%)" offset="0.257812"/><stop stop-opacity="1" stop-color="rgb(0.279236%, 81.002808%, 95.497131%)" offset="0.261719"/><stop stop-opacity="1" stop-color="rgb(0.27771%, 80.792236%, 95.489502%)" offset="0.265625"/><stop stop-opacity="1" stop-color="rgb(0.276184%, 80.580139%, 95.481873%)" offset="0.269531"/><stop stop-opacity="1" stop-color="rgb(0.274658%, 80.369568%, 95.474243%)" offset="0.273437"/><stop stop-opacity="1" stop-color="rgb(0.273132%, 80.157471%, 95.466614%)" offset="0.277344"/><stop stop-opacity="1" stop-color="rgb(0.271606%, 79.946899%, 95.458984%)" offset="0.28125"/><stop stop-opacity="1" stop-color="rgb(0.270081%, 79.734802%, 95.451355%)" offset="0.285156"/><stop stop-opacity="1" stop-color="rgb(0.268555%, 79.524231%, 95.443726%)" offset="0.289062"/><stop stop-opacity="1" stop-color="rgb(0.267029%, 79.312134%, 95.436096%)" offset="0.292969"/><stop stop-opacity="1" stop-color="rgb(0.265503%, 79.101562%, 95.428467%)" offset="0.296875"/><stop stop-opacity="1" stop-color="rgb(0.263977%, 78.889465%, 95.419312%)" offset="0.300781"/><stop stop-opacity="1" stop-color="rgb(0.262451%, 78.678894%, 95.411682%)" offset="0.304687"/><stop stop-opacity="1" stop-color="rgb(0.260925%, 78.466797%, 95.404053%)" offset="0.308594"/><stop stop-opacity="1" stop-color="rgb(0.259399%, 78.256226%, 95.396423%)" offset="0.3125"/><stop stop-opacity="1" stop-color="rgb(0.256348%, 78.044128%, 95.388794%)" offset="0.316406"/><stop stop-opacity="1" stop-color="rgb(0.254822%, 77.833557%, 95.381165%)" offset="0.320312"/><stop stop-opacity="1" stop-color="rgb(0.253296%, 77.62146%, 95.373535%)" offset="0.324219"/><stop stop-opacity="1" stop-color="rgb(0.25177%, 77.410889%, 95.365906%)" offset="0.328125"/><stop stop-opacity="1" stop-color="rgb(0.250244%, 77.198792%, 95.35675%)" offset="0.332031"/><stop stop-opacity="1" stop-color="rgb(0.248718%, 76.98822%, 95.349121%)" offset="0.335937"/><stop stop-opacity="1" stop-color="rgb(0.247192%, 76.776123%, 95.341492%)" offset="0.339844"/><stop stop-opacity="1" stop-color="rgb(0.245667%, 76.565552%, 95.333862%)" offset="0.34375"/><stop stop-opacity="1" stop-color="rgb(0.244141%, 76.353455%, 95.326233%)" offset="0.347656"/><stop stop-opacity="1" stop-color="rgb(0.242615%, 76.142883%, 95.318604%)" offset="0.351562"/><stop stop-opacity="1" stop-color="rgb(0.241089%, 75.930786%, 95.310974%)" offset="0.355469"/><stop stop-opacity="1" stop-color="rgb(0.239563%, 75.720215%, 95.303345%)" offset="0.359375"/><stop stop-opacity="1" stop-color="rgb(0.238037%, 75.508118%, 95.295715%)" offset="0.363281"/><stop stop-opacity="1" stop-color="rgb(0.236511%, 75.297546%, 95.288086%)" offset="0.367187"/><stop stop-opacity="1" stop-color="rgb(0.234985%, 75.085449%, 95.278931%)" offset="0.371094"/><stop stop-opacity="1" stop-color="rgb(0.233459%, 74.874878%, 95.271301%)" offset="0.375"/><stop stop-opacity="1" stop-color="rgb(0.231934%, 74.662781%, 95.263672%)" offset="0.378906"/><stop stop-opacity="1" stop-color="rgb(0.230408%, 74.452209%, 95.256042%)" offset="0.382812"/><stop stop-opacity="1" stop-color="rgb(0.228882%, 74.240112%, 95.248413%)" offset="0.386719"/><stop stop-opacity="1" stop-color="rgb(0.227356%, 74.029541%, 95.240784%)" offset="0.390625"/><stop stop-opacity="1" stop-color="rgb(0.22583%, 73.817444%, 95.233154%)" offset="0.394531"/><stop stop-opacity="1" stop-color="rgb(0.224304%, 73.606873%, 95.225525%)" offset="0.398437"/><stop stop-opacity="1" stop-color="rgb(0.222778%, 73.394775%, 95.21637%)" offset="0.402344"/><stop stop-opacity="1" stop-color="rgb(0.221252%, 73.184204%, 95.20874%)" offset="0.40625"/><stop stop-opacity="1" stop-color="rgb(0.219727%, 72.972107%, 95.201111%)" offset="0.410156"/><stop stop-opacity="1" stop-color="rgb(0.218201%, 72.761536%, 95.193481%)" offset="0.414062"/><stop stop-opacity="1" stop-color="rgb(0.216675%, 72.549438%, 95.185852%)" offset="0.417969"/><stop stop-opacity="1" stop-color="rgb(0.215149%, 72.338867%, 95.178223%)" offset="0.421875"/><stop stop-opacity="1" stop-color="rgb(0.213623%, 72.12677%, 95.170593%)" offset="0.425781"/><stop stop-opacity="1" stop-color="rgb(0.212097%, 71.916199%, 95.162964%)" offset="0.429687"/><stop stop-opacity="1" stop-color="rgb(0.210571%, 71.704102%, 95.155334%)" offset="0.433594"/><stop stop-opacity="1" stop-color="rgb(0.209045%, 71.49353%, 95.147705%)" offset="0.4375"/><stop stop-opacity="1" stop-color="rgb(0.20752%, 71.281433%, 95.13855%)" offset="0.441406"/><stop stop-opacity="1" stop-color="rgb(0.205994%, 71.070862%, 95.13092%)" offset="0.445312"/><stop stop-opacity="1" stop-color="rgb(0.204468%, 70.858765%, 95.123291%)" offset="0.449219"/><stop stop-opacity="1" stop-color="rgb(0.202942%, 70.648193%, 95.115662%)" offset="0.453125"/><stop stop-opacity="1" stop-color="rgb(0.201416%, 70.436096%, 95.108032%)" offset="0.457031"/><stop stop-opacity="1" stop-color="rgb(0.19989%, 70.225525%, 95.100403%)" offset="0.460937"/><stop stop-opacity="1" stop-color="rgb(0.198364%, 70.013428%, 95.092773%)" offset="0.464844"/><stop stop-opacity="1" stop-color="rgb(0.196838%, 69.802856%, 95.085144%)" offset="0.46875"/><stop stop-opacity="1" stop-color="rgb(0.195312%, 69.590759%, 95.075989%)" offset="0.472656"/><stop stop-opacity="1" stop-color="rgb(0.193787%, 69.380188%, 95.068359%)" offset="0.476562"/><stop stop-opacity="1" stop-color="rgb(0.192261%, 69.168091%, 95.06073%)" offset="0.480469"/><stop stop-opacity="1" stop-color="rgb(0.190735%, 68.95752%, 95.053101%)" offset="0.484375"/><stop stop-opacity="1" stop-color="rgb(0.189209%, 68.745422%, 95.045471%)" offset="0.488281"/><stop stop-opacity="1" stop-color="rgb(0.187683%, 68.534851%, 95.037842%)" offset="0.492188"/><stop stop-opacity="1" stop-color="rgb(0.184631%, 68.322754%, 95.030212%)" offset="0.496094"/><stop stop-opacity="1" stop-color="rgb(0.183105%, 68.112183%, 95.022583%)" offset="0.5"/><stop stop-opacity="1" stop-color="rgb(0.18158%, 67.900085%, 95.014954%)" offset="0.503906"/><stop stop-opacity="1" stop-color="rgb(0.180054%, 67.689514%, 95.007324%)" offset="0.507812"/><stop stop-opacity="1" stop-color="rgb(0.178528%, 67.477417%, 94.998169%)" offset="0.511719"/><stop stop-opacity="1" stop-color="rgb(0.177002%, 67.266846%, 94.99054%)" offset="0.515625"/><stop stop-opacity="1" stop-color="rgb(0.175476%, 67.054749%, 94.98291%)" offset="0.519531"/><stop stop-opacity="1" stop-color="rgb(0.17395%, 66.844177%, 94.975281%)" offset="0.523438"/><stop stop-opacity="1" stop-color="rgb(0.172424%, 66.63208%, 94.967651%)" offset="0.527344"/><stop stop-opacity="1" stop-color="rgb(0.170898%, 66.421509%, 94.960022%)" offset="0.53125"/><stop stop-opacity="1" stop-color="rgb(0.169373%, 66.209412%, 94.952393%)" offset="0.535156"/><stop stop-opacity="1" stop-color="rgb(0.167847%, 65.99884%, 94.944763%)" offset="0.539062"/><stop stop-opacity="1" stop-color="rgb(0.166321%, 65.786743%, 94.935608%)" offset="0.542969"/><stop stop-opacity="1" stop-color="rgb(0.164795%, 65.576172%, 94.927979%)" offset="0.546875"/><stop stop-opacity="1" stop-color="rgb(0.163269%, 65.364075%, 94.920349%)" offset="0.550781"/><stop stop-opacity="1" stop-color="rgb(0.161743%, 65.153503%, 94.91272%)" offset="0.554688"/><stop stop-opacity="1" stop-color="rgb(0.160217%, 64.941406%, 94.90509%)" offset="0.558594"/><stop stop-opacity="1" stop-color="rgb(0.158691%, 64.730835%, 94.897461%)" offset="0.5625"/><stop stop-opacity="1" stop-color="rgb(0.157166%, 64.518738%, 94.889832%)" offset="0.566406"/><stop stop-opacity="1" stop-color="rgb(0.15564%, 64.308167%, 94.882202%)" offset="0.570312"/><stop stop-opacity="1" stop-color="rgb(0.154114%, 64.096069%, 94.874573%)" offset="0.574219"/><stop stop-opacity="1" stop-color="rgb(0.152588%, 63.885498%, 94.866943%)" offset="0.578125"/><stop stop-opacity="1" stop-color="rgb(0.151062%, 63.673401%, 94.857788%)" offset="0.582031"/><stop stop-opacity="1" stop-color="rgb(0.149536%, 63.46283%, 94.850159%)" offset="0.585938"/><stop stop-opacity="1" stop-color="rgb(0.14801%, 63.250732%, 94.842529%)" offset="0.589844"/><stop stop-opacity="1" stop-color="rgb(0.146484%, 63.040161%, 94.8349%)" offset="0.59375"/><stop stop-opacity="1" stop-color="rgb(0.144958%, 62.828064%, 94.827271%)" offset="0.597656"/><stop stop-opacity="1" stop-color="rgb(0.143433%, 62.617493%, 94.819641%)" offset="0.601562"/><stop stop-opacity="1" stop-color="rgb(0.141907%, 62.405396%, 94.812012%)" offset="0.605469"/><stop stop-opacity="1" stop-color="rgb(0.140381%, 62.194824%, 94.804382%)" offset="0.609375"/><stop stop-opacity="1" stop-color="rgb(0.138855%, 61.982727%, 94.795227%)" offset="0.613281"/><stop stop-opacity="1" stop-color="rgb(0.137329%, 61.772156%, 94.787598%)" offset="0.617188"/><stop stop-opacity="1" stop-color="rgb(0.135803%, 61.560059%, 94.779968%)" offset="0.621094"/><stop stop-opacity="1" stop-color="rgb(0.134277%, 61.349487%, 94.772339%)" offset="0.625"/><stop stop-opacity="1" stop-color="rgb(0.132751%, 61.13739%, 94.764709%)" offset="0.628906"/><stop stop-opacity="1" stop-color="rgb(0.131226%, 60.926819%, 94.75708%)" offset="0.632812"/><stop stop-opacity="1" stop-color="rgb(0.1297%, 60.714722%, 94.749451%)" offset="0.636719"/><stop stop-opacity="1" stop-color="rgb(0.128174%, 60.50415%, 94.741821%)" offset="0.640625"/><stop stop-opacity="1" stop-color="rgb(0.126648%, 60.292053%, 94.734192%)" offset="0.644531"/><stop stop-opacity="1" stop-color="rgb(0.125122%, 60.081482%, 94.726562%)" offset="0.648438"/><stop stop-opacity="1" stop-color="rgb(0.123596%, 59.869385%, 94.717407%)" offset="0.652344"/><stop stop-opacity="1" stop-color="rgb(0.12207%, 59.658813%, 94.709778%)" offset="0.65625"/><stop stop-opacity="1" stop-color="rgb(0.120544%, 59.446716%, 94.702148%)" offset="0.660156"/><stop stop-opacity="1" stop-color="rgb(0.119019%, 59.236145%, 94.694519%)" offset="0.664062"/><stop stop-opacity="1" stop-color="rgb(0.117493%, 59.024048%, 94.68689%)" offset="0.667969"/><stop stop-opacity="1" stop-color="rgb(0.115967%, 58.813477%, 94.67926%)" offset="0.671875"/><stop stop-opacity="1" stop-color="rgb(0.112915%, 58.601379%, 94.671631%)" offset="0.675781"/><stop stop-opacity="1" stop-color="rgb(0.111389%, 58.390808%, 94.664001%)" offset="0.679688"/><stop stop-opacity="1" stop-color="rgb(0.109863%, 58.178711%, 94.654846%)" offset="0.683594"/><stop stop-opacity="1" stop-color="rgb(0.108337%, 57.96814%, 94.647217%)" offset="0.6875"/><stop stop-opacity="1" stop-color="rgb(0.106812%, 57.756042%, 94.639587%)" offset="0.691406"/><stop stop-opacity="1" stop-color="rgb(0.105286%, 57.545471%, 94.631958%)" offset="0.695312"/><stop stop-opacity="1" stop-color="rgb(0.10376%, 57.333374%, 94.624329%)" offset="0.699219"/><stop stop-opacity="1" stop-color="rgb(0.102234%, 57.122803%, 94.616699%)" offset="0.703125"/><stop stop-opacity="1" stop-color="rgb(0.100708%, 56.910706%, 94.60907%)" offset="0.707031"/><stop stop-opacity="1" stop-color="rgb(0.0991821%, 56.700134%, 94.60144%)" offset="0.710938"/><stop stop-opacity="1" stop-color="rgb(0.0976562%, 56.488037%, 94.593811%)" offset="0.714844"/><stop stop-opacity="1" stop-color="rgb(0.0961304%, 56.277466%, 94.586182%)" offset="0.71875"/><stop stop-opacity="1" stop-color="rgb(0.0946045%, 56.065369%, 94.577026%)" offset="0.722656"/><stop stop-opacity="1" stop-color="rgb(0.0930786%, 55.854797%, 94.569397%)" offset="0.726562"/><stop stop-opacity="1" stop-color="rgb(0.0915527%, 55.6427%, 94.561768%)" offset="0.730469"/><stop stop-opacity="1" stop-color="rgb(0.0900269%, 55.432129%, 94.554138%)" offset="0.734375"/><stop stop-opacity="1" stop-color="rgb(0.088501%, 55.220032%, 94.546509%)" offset="0.738281"/><stop stop-opacity="1" stop-color="rgb(0.0869751%, 55.00946%, 94.538879%)" offset="0.742188"/><stop stop-opacity="1" stop-color="rgb(0.0854492%, 54.797363%, 94.53125%)" offset="0.746094"/><stop stop-opacity="1" stop-color="rgb(0.0839233%, 54.586792%, 94.523621%)" offset="0.75"/><stop stop-opacity="1" stop-color="rgb(0.0823975%, 54.374695%, 94.514465%)" offset="0.753906"/><stop stop-opacity="1" stop-color="rgb(0.0808716%, 54.164124%, 94.506836%)" offset="0.757812"/><stop stop-opacity="1" stop-color="rgb(0.0793457%, 53.952026%, 94.499207%)" offset="0.761719"/><stop stop-opacity="1" stop-color="rgb(0.0778198%, 53.741455%, 94.491577%)" offset="0.765625"/><stop stop-opacity="1" stop-color="rgb(0.0762939%, 53.529358%, 94.483948%)" offset="0.769531"/><stop stop-opacity="1" stop-color="rgb(0.0747681%, 53.318787%, 94.476318%)" offset="0.773438"/><stop stop-opacity="1" stop-color="rgb(0.0732422%, 53.106689%, 94.468689%)" offset="0.777344"/><stop stop-opacity="1" stop-color="rgb(0.0717163%, 52.896118%, 94.46106%)" offset="0.78125"/><stop stop-opacity="1" stop-color="rgb(0.0701904%, 52.684021%, 94.45343%)" offset="0.785156"/><stop stop-opacity="1" stop-color="rgb(0.0686646%, 52.47345%, 94.445801%)" offset="0.789062"/><stop stop-opacity="1" stop-color="rgb(0.0671387%, 52.261353%, 94.436646%)" offset="0.792969"/><stop stop-opacity="1" stop-color="rgb(0.0656128%, 52.050781%, 94.429016%)" offset="0.796875"/><stop stop-opacity="1" stop-color="rgb(0.0640869%, 51.838684%, 94.421387%)" offset="0.800781"/><stop stop-opacity="1" stop-color="rgb(0.062561%, 51.628113%, 94.413757%)" offset="0.804688"/><stop stop-opacity="1" stop-color="rgb(0.0610352%, 51.416016%, 94.406128%)" offset="0.808594"/><stop stop-opacity="1" stop-color="rgb(0.0595093%, 51.205444%, 94.398499%)" offset="0.8125"/><stop stop-opacity="1" stop-color="rgb(0.0579834%, 50.993347%, 94.390869%)" offset="0.816406"/><stop stop-opacity="1" stop-color="rgb(0.0564575%, 50.782776%, 94.38324%)" offset="0.820312"/><stop stop-opacity="1" stop-color="rgb(0.0549316%, 50.570679%, 94.374084%)" offset="0.824219"/><stop stop-opacity="1" stop-color="rgb(0.0534058%, 50.360107%, 94.366455%)" offset="0.828125"/><stop stop-opacity="1" stop-color="rgb(0.0518799%, 50.14801%, 94.358826%)" offset="0.832031"/><stop stop-opacity="1" stop-color="rgb(0.050354%, 49.937439%, 94.351196%)" offset="0.835938"/><stop stop-opacity="1" stop-color="rgb(0.0488281%, 49.725342%, 94.343567%)" offset="0.839844"/><stop stop-opacity="1" stop-color="rgb(0.0473022%, 49.514771%, 94.335938%)" offset="0.84375"/><stop stop-opacity="1" stop-color="rgb(0.0442505%, 49.302673%, 94.328308%)" offset="0.847656"/><stop stop-opacity="1" stop-color="rgb(0.0427246%, 49.092102%, 94.320679%)" offset="0.851562"/><stop stop-opacity="1" stop-color="rgb(0.0411987%, 48.880005%, 94.313049%)" offset="0.855469"/><stop stop-opacity="1" stop-color="rgb(0.0396729%, 48.669434%, 94.30542%)" offset="0.859375"/><stop stop-opacity="1" stop-color="rgb(0.038147%, 48.457336%, 94.296265%)" offset="0.863281"/><stop stop-opacity="1" stop-color="rgb(0.0366211%, 48.246765%, 94.288635%)" offset="0.867188"/><stop stop-opacity="1" stop-color="rgb(0.0350952%, 48.034668%, 94.281006%)" offset="0.871094"/><stop stop-opacity="1" stop-color="rgb(0.0335693%, 47.824097%, 94.273376%)" offset="0.875"/><stop stop-opacity="1" stop-color="rgb(0.0320435%, 47.612%, 94.265747%)" offset="0.878906"/><stop stop-opacity="1" stop-color="rgb(0.0305176%, 47.401428%, 94.258118%)" offset="0.882812"/><stop stop-opacity="1" stop-color="rgb(0.0289917%, 47.189331%, 94.250488%)" offset="0.886719"/><stop stop-opacity="1" stop-color="rgb(0.0274658%, 46.97876%, 94.242859%)" offset="0.890625"/><stop stop-opacity="1" stop-color="rgb(0.0259399%, 46.766663%, 94.233704%)" offset="0.894531"/><stop stop-opacity="1" stop-color="rgb(0.0244141%, 46.556091%, 94.226074%)" offset="0.898438"/><stop stop-opacity="1" stop-color="rgb(0.0228882%, 46.343994%, 94.218445%)" offset="0.902344"/><stop stop-opacity="1" stop-color="rgb(0.0213623%, 46.133423%, 94.210815%)" offset="0.90625"/><stop stop-opacity="1" stop-color="rgb(0.0198364%, 45.921326%, 94.203186%)" offset="0.910156"/><stop stop-opacity="1" stop-color="rgb(0.0183105%, 45.710754%, 94.195557%)" offset="0.914062"/><stop stop-opacity="1" stop-color="rgb(0.0167847%, 45.498657%, 94.187927%)" offset="0.917969"/><stop stop-opacity="1" stop-color="rgb(0.0152588%, 45.288086%, 94.180298%)" offset="0.921875"/><stop stop-opacity="1" stop-color="rgb(0.0137329%, 45.075989%, 94.172668%)" offset="0.925781"/><stop stop-opacity="1" stop-color="rgb(0.012207%, 44.865417%, 94.165039%)" offset="0.929688"/><stop stop-opacity="1" stop-color="rgb(0.0106812%, 44.65332%, 94.155884%)" offset="0.933594"/><stop stop-opacity="1" stop-color="rgb(0.00915527%, 44.442749%, 94.148254%)" offset="0.9375"/><stop stop-opacity="1" stop-color="rgb(0.00762939%, 44.230652%, 94.140625%)" offset="0.941406"/><stop stop-opacity="1" stop-color="rgb(0.00610352%, 44.020081%, 94.132996%)" offset="0.945312"/><stop stop-opacity="1" stop-color="rgb(0.00457764%, 43.807983%, 94.125366%)" offset="0.949219"/><stop stop-opacity="1" stop-color="rgb(0.00305176%, 43.597412%, 94.117737%)" offset="0.953125"/><stop stop-opacity="1" stop-color="rgb(0.00152588%, 43.385315%, 94.110107%)" offset="0.957031"/><stop stop-opacity="1" stop-color="rgb(0%, 43.174744%, 94.102478%)" offset="0.960938"/><stop stop-opacity="1" stop-color="rgb(0%, 43.136597%, 94.100952%)" offset="0.96875"/><stop stop-opacity="1" stop-color="rgb(0%, 43.099976%, 94.099426%)" offset="1"/></linearGradient></defs><g clip-path="url(#183723c66d)"><g clip-path="url(#599ac0080e)"><path fill="url(#efc43d2614)" d="M 112.003906 4.558594 L 0 4.558594 L 0 107.601562 L 112.003906 107.601562 Z M 112.003906 4.558594 " fill-rule="nonzero"/></g></g></svg>